<svg xmlns="http://www.w3.org/2000/svg" viewBox="0 0 940 940"><defs><style>.cls-1{fill:#0e0c15;}.cls-2{fill:#e8e4d5;}.cls-3{fill:#cfb15f;}.cls-4{fill:#972a1e;}.cls-5{fill:#1e346c;}</style></defs><title>Composition-VII-the-three-graces—Theo-van-Doesburg</title><g id="Layer_4" data-name="Layer 4"><rect class="cls-1" width="940" height="940"/></g><g id="Layer_3" data-name="Layer 3"><rect class="cls-2" x="20" y="420" width="60" height="280"/><rect class="cls-2" x="310" y="270" width="50" height="310"/><rect class="cls-2" x="310" y="120" width="100" height="50"/><rect class="cls-2" x="470" y="420" width="210" height="50"/><rect class="cls-2" x="690" y="500" width="40" height="120"/><rect class="cls-2" x="830" y="330" width="100" height="50"/><rect class="cls-2" x="160" y="320" width="130" height="50"/><rect class="cls-3" x="110" y="480" width="40" height="150"/><rect class="cls-3" x="390" y="540" width="70" height="80"/><rect class="cls-3" x="80" y="220" width="50" height="160"/><rect class="cls-3" x="450" y="190" width="50" height="200"/><rect class="cls-3" x="730" y="170" width="50" height="200"/><rect class="cls-3" x="820" y="690" width="50" height="250"/><rect class="cls-3" x="390" y="810" width="300" height="60"/><rect class="cls-4" x="660" y="50" width="60" height="60"/><rect class="cls-4" x="570" y="280" width="80" height="40"/><rect class="cls-4" x="220" y="170" width="50" height="100"/><rect class="cls-4" x="840" y="510" width="90" height="50"/><rect class="cls-4" x="540" y="620" width="80" height="150"/><rect class="cls-4" x="80" y="810" width="190" height="40"/><rect class="cls-4" x="220" y="590" width="90" height="40"/><rect class="cls-5" x="880" y="30" width="40" height="260"/><rect class="cls-5" x="580" y="140" width="40" height="100"/><rect class="cls-5" x="150" y="60" width="70" height="70"/><rect class="cls-5" x="490" y="510" width="80" height="80"/><rect class="cls-5" x="210" y="420" width="40" height="110"/><rect class="cls-5" x="110" y="690" width="250" height="60"/><rect class="cls-5" x="780" y="480" width="40" height="190"/></g></svg>